<svg width="47" height="57" viewBox="0 0 47 57" fill="none" xmlns="http://www.w3.org/2000/svg">
<g clip-path="url(#clip0_1501_76)">
<path d="M46.4843 20.489C46.4843 23.1079 46.431 25.7269 46.4843 28.3724C46.6707 34.6686 44.4863 40.1446 40.4904 44.9065C36.1749 50.0915 30.7404 53.7952 24.5868 56.52C23.7077 56.9168 22.9085 56.9432 22.0027 56.5464C14.9966 53.4248 8.86957 49.1656 4.42081 42.8165C1.17081 38.187 -0.187795 33.0284 -0.00132018 27.3407C0.185155 21.8117 0.131876 16.2298 -0.0279595 10.7008C-0.0812381 8.71671 0.504827 7.52626 2.28966 6.57389C9.32244 2.76445 16.7282 0.409997 24.7999 0.753906C32.0191 1.07136 38.679 3.34645 44.8859 6.99717C46.058 7.68498 46.5376 8.55798 46.5109 9.90716C46.431 13.4256 46.4843 16.9705 46.4843 20.489ZM43.3408 21.2826C43.3408 17.9758 43.3142 14.6954 43.3408 11.3886C43.3408 10.4362 43.2343 9.66907 42.2486 9.13998C36.681 6.12417 30.7937 4.11363 24.4269 3.87554C17.5273 3.61099 11.1872 5.62153 5.11343 8.71671C3.72818 9.43098 3.16876 10.2511 3.1954 11.8383C3.30195 17.3144 3.35523 22.7905 3.1954 28.2666C3.03556 34.3247 5.24662 39.3775 9.18924 43.7954C12.679 47.7371 16.9679 50.6206 21.6564 53.0015C22.7486 53.5571 23.7343 53.5835 24.8798 53.0015C29.7548 50.5148 34.2302 47.4725 37.7999 43.2927C41.4228 39.0336 43.554 34.1924 43.3675 28.4782C43.2609 26.0709 43.3408 23.6635 43.3408 21.2826Z" fill="white"/>
<path d="M19.5268 33.3988C23.1764 29.8539 26.3731 26.7587 29.5432 23.69C30.3424 22.8964 31.1149 22.0498 31.9674 21.3091C32.9264 20.4626 33.6723 20.4626 34.3649 21.1239C35.0842 21.8118 35.1108 22.526 34.1785 23.4519C29.8895 27.764 25.574 32.0761 21.2318 36.3353C20.2727 37.2876 19.66 37.2876 18.701 36.3617C16.5166 34.2718 14.3855 32.1555 12.3076 30.0126C11.4551 29.1396 11.4818 28.5312 12.1211 27.8698C12.8137 27.1556 13.6662 27.1027 14.5187 27.8698C15.7973 29.0338 17.0227 30.2772 18.1949 31.5206C18.6744 32.0496 19.0473 32.7375 19.5268 33.3988Z" fill="white"/>
</g>
<defs>
<clipPath id="clip0_1501_76">
<rect width="46.5122" height="56.11" fill="white" transform="translate(0 0.727539)"/>
</clipPath>
</defs>
</svg>
